<mxfile host="app.diagrams.net" modified="2020-09-23T08:14:03.180Z" agent="5.0 (Windows NT 10.0; Win64; x64) AppleWebKit/537.36 (KHTML, like Gecko) Chrome/85.0.4183.102 Safari/537.36" etag="0Q0LaKrIgt5mi8kj48K_" version="13.7.4" type="github">
  <diagram id="HtavSG9tKs9IYkskBHLj" name="Page-1">
    <mxGraphModel dx="870" dy="595" grid="1" gridSize="10" guides="1" tooltips="1" connect="1" arrows="1" fold="1" page="1" pageScale="1" pageWidth="827" pageHeight="1169" math="0" shadow="0">
      <root>
        <mxCell id="0" />
        <mxCell id="1" parent="0" />
        <mxCell id="5iEE5CJu3XW8mEWYPceY-1" value="Actor" style="shape=umlActor;verticalLabelPosition=bottom;verticalAlign=top;html=1;outlineConnect=0;" vertex="1" parent="1">
          <mxGeometry x="90" y="50" width="30" height="60" as="geometry" />
        </mxCell>
        <mxCell id="5iEE5CJu3XW8mEWYPceY-4" value="Object" style="html=1;" vertex="1" parent="1">
          <mxGeometry x="280" y="50" width="200" height="370" as="geometry" />
        </mxCell>
      </root>
    </mxGraphModel>
  </diagram>
</mxfile>
